<svg width="20" height="20" viewBox="0 0 20 20" fill="none" xmlns="http://www.w3.org/2000/svg">
<path fill-rule="evenodd" clip-rule="evenodd" d="M8.8021 1.875H11.2009C11.2955 1.87499 11.3691 1.87498 11.4388 1.87919C12.3225 1.93271 13.0963 2.49046 13.4265 3.31188C13.4525 3.37663 13.4758 3.44648 13.5057 3.53623L13.5325 3.6165C13.5482 3.66375 13.5527 3.67712 13.5565 3.68765C13.7042 4.09582 14.0679 4.37982 14.4474 4.41676C14.4753 4.41827 14.503 4.41984 14.5305 4.42146C15.9275 4.50388 17.0024 4.73647 17.8003 5.53437C18.4239 6.15801 18.7007 6.9488 18.832 7.92582C18.9597 8.87516 18.9596 10.0882 18.9596 11.6197V11.7137C18.9596 13.2451 18.9597 14.4582 18.832 15.4075C18.7007 16.3845 18.4239 17.1753 17.8003 17.799C17.1766 18.4226 16.3858 18.6994 15.4088 18.8307C14.4595 18.9584 13.2464 18.9583 11.715 18.9583H8.28763C6.75616 18.9583 5.54313 18.9584 4.59378 18.8307C3.61676 18.6994 2.82597 18.4226 2.20234 17.799C1.5787 17.1753 1.30194 16.3845 1.17058 15.4075C1.04295 14.4582 1.04296 13.2452 1.04297 11.7137V11.6197C1.04296 10.0882 1.04295 8.87516 1.17058 7.92582C1.30194 6.9488 1.5787 6.15801 2.20234 5.53437C3.00024 4.73647 4.07509 4.50388 5.47212 4.42146C5.49964 4.41984 5.52736 4.41827 5.55527 4.41676C5.93491 4.3798 6.29885 4.09568 6.44644 3.68767C6.45028 3.67707 6.45469 3.66398 6.47051 3.61651L6.49728 3.5362C6.52718 3.44648 6.55045 3.37662 6.57648 3.31188C6.9067 2.49046 7.68052 1.93271 8.56422 1.87919C8.63388 1.87498 8.7075 1.87499 8.8021 1.875ZM5.53625 5.66985C5.57327 5.66872 5.61005 5.66664 5.64659 5.66365C6.37359 5.62522 7.24895 5.625 8.33464 5.625H11.668C12.7537 5.625 13.629 5.62522 14.356 5.66365C14.3925 5.66664 14.4293 5.66872 14.4664 5.66985C15.8029 5.74955 16.4648 5.96663 16.9164 6.41826C17.0767 6.57859 17.2079 6.76587 17.3138 7.00124C15.7912 7.98971 14.7908 8.62737 13.9484 9.04821C13.8931 8.75968 13.6393 8.54167 13.3346 8.54167C12.9895 8.54167 12.7096 8.82149 12.7096 9.16667V9.5483C10.9434 10.0813 9.05917 10.0812 7.29297 9.54826V9.16667C7.29297 8.82149 7.01315 8.54167 6.66797 8.54167C6.36332 8.54167 6.10957 8.75965 6.05419 9.04815C5.21181 8.6273 4.21139 7.98963 2.68884 7.00117C2.79478 6.76584 2.9259 6.57858 3.08622 6.41826C3.53785 5.96663 4.1997 5.74955 5.53625 5.66985ZM2.38491 8.29418C2.2941 9.12452 2.29297 10.1994 2.29297 11.6667C2.29297 13.2557 2.2943 14.3846 2.40943 15.241C2.52216 16.0794 2.73355 16.5624 3.08622 16.9151C3.4389 17.2678 3.92194 17.4791 4.76034 17.5919C5.61673 17.707 6.74562 17.7083 8.33464 17.7083H11.668C13.257 17.7083 14.3859 17.707 15.2423 17.5919C16.0807 17.4791 16.5637 17.2678 16.9164 16.9151C17.2691 16.5624 17.4804 16.0794 17.5932 15.241C17.7083 14.3846 17.7096 13.2557 17.7096 11.6667C17.7096 10.1995 17.7085 9.12459 17.6177 8.29427C16.0452 9.31324 14.9667 9.98756 13.9596 10.4205V10.8333C13.9596 11.1785 13.6798 11.4583 13.3346 11.4583C12.994 11.4583 12.7171 11.1859 12.7098 10.847C10.9345 11.315 9.06805 11.315 7.29282 10.847C7.28557 11.1859 7.00859 11.4583 6.66797 11.4583C6.32279 11.4583 6.04297 11.1785 6.04297 10.8333V10.4204C5.03588 9.98748 3.95743 9.31316 2.38491 8.29418ZM12.4946 4.37574C12.2356 4.375 11.9659 4.375 11.6851 4.375H8.3175C8.03688 4.375 7.76726 4.375 7.50832 4.37574C7.55141 4.29052 7.5894 4.20272 7.6219 4.11287C7.63184 4.0854 7.64158 4.05616 7.6541 4.01859L7.65637 4.01179L7.67775 3.94765C7.71553 3.83431 7.72622 3.80312 7.73627 3.77813C7.88637 3.40475 8.23811 3.15124 8.63978 3.12691C8.66667 3.12528 8.69962 3.125 8.81911 3.125H11.1839C11.3034 3.125 11.3363 3.12528 11.3632 3.12691C11.7649 3.15124 12.1166 3.40475 12.2667 3.77813C12.2768 3.80312 12.2874 3.83429 12.3252 3.94765L12.3488 4.01844M12.3811 4.11289C12.4136 4.20273 12.4516 4.29053 12.4946 4.37574L12.3811 4.11289Z" fill="#3C3C3C"/>
</svg>
