<svg width="24" height="24" viewBox="0 0 24 24" fill="none" xmlns="http://www.w3.org/2000/svg">
<path d="M12 0C18.6274 0 24 5.37258 24 12C24 18.6274 18.6274 24 12 24C5.37258 24 0 18.6274 0 12C0 5.37258 5.37258 0 12 0ZM12.3955 4.40039C8.46245 4.40039 5.26133 7.60088 5.25977 11.5352C5.25924 12.7927 5.58751 14.0204 6.21191 15.1025L5.2002 18.7998L8.98242 17.8076C10.0246 18.3761 11.1983 18.6754 12.3926 18.6758H12.3955C16.3296 18.6742 19.5295 15.4743 19.5312 11.541C19.532 9.6346 18.7903 7.84183 17.4434 6.49316C16.0962 5.1444 14.3043 4.40122 12.3955 4.40039Z" fill="#159F61"/>
<path d="M12.3982 5.60156C13.9821 5.60219 15.4709 6.21994 16.5906 7.34082C17.7103 8.46187 18.3265 9.95237 18.3259 11.5371C18.3244 14.8071 15.664 17.4678 12.3953 17.4678H12.3933C11.3291 17.4674 10.2853 17.1809 9.37476 16.6406L9.15796 16.5127L6.91284 17.1016L7.51245 14.9121L7.37183 14.6885C6.7782 13.7443 6.4642 12.6528 6.4646 11.5322C6.4659 8.26225 9.12678 5.60156 12.3982 5.60156ZM9.8689 8.23633C9.75002 8.23641 9.55658 8.28065 9.39331 8.45898C9.22988 8.63748 8.76944 9.06912 8.76929 9.94629C8.76929 10.8238 9.40849 11.6718 9.4978 11.791C9.58694 11.9101 10.7551 13.7111 12.5437 14.4834C12.969 14.6671 13.3014 14.7763 13.5603 14.8584C13.9873 14.9941 14.3762 14.9756 14.6833 14.9297C15.026 14.8783 15.7377 14.4983 15.8865 14.082C16.0349 13.6658 16.0344 13.3091 15.99 13.2344C15.9455 13.16 15.8273 13.1146 15.6492 13.0254C15.4709 12.9362 14.5939 12.5049 14.4304 12.4453C14.267 12.3858 14.1479 12.3567 14.0291 12.5352C13.91 12.7138 13.5685 13.1155 13.4646 13.2344C13.3607 13.353 13.2568 13.3674 13.0789 13.2783C12.9006 13.1891 12.3253 13.001 11.6443 12.3936C11.1144 11.9208 10.7571 11.3367 10.6531 11.1582C10.5491 10.9798 10.642 10.8838 10.7312 10.7949C10.8114 10.715 10.9096 10.5865 10.9988 10.4824C11.0879 10.3784 11.1171 10.3034 11.1765 10.1846C11.2358 10.0656 11.2064 9.96129 11.1619 9.87207C11.1167 9.78129 10.7605 8.90557 10.6121 8.54883C10.4673 8.20117 10.3201 8.24768 10.2107 8.24219C10.1069 8.23698 9.98764 8.23633 9.8689 8.23633Z" fill="#159F61"/>
</svg>
